<?xml version="1.0" encoding="UTF-8" standalone="no"?>
<!DOCTYPE svg PUBLIC "-//W3C//DTD SVG 1.1//EN"
 "http://www.w3.org/Graphics/SVG/1.1/DTD/svg11.dtd">
<!-- Generated by graphviz version 2.38.0 (20140413.2041)
 -->
<!-- Title: G Pages: 1 -->
<svg width="564pt" height="44pt"
 viewBox="0.00 0.00 564.07 44.00" xmlns="http://www.w3.org/2000/svg" xmlns:xlink="http://www.w3.org/1999/xlink">
<g id="graph0" class="graph" transform="scale(1 1) rotate(0) translate(4 40)">
<title>G</title>
<polygon fill="white" stroke="none" points="-4,4 -4,-40 560.074,-40 560.074,4 -4,4"/>
<!-- State 0 -->
<g id="node1" class="node"><title>State 0</title>
<ellipse fill="none" stroke="black" cx="35.0969" cy="-18" rx="35.194" ry="18"/>
<text text-anchor="middle" x="35.0969" y="-14.3" font-family="Times,serif" font-size="14.00">State 0</text>
</g>
<!-- State 1 -->
<g id="node2" class="node"><title>State 1</title>
<ellipse fill="none" stroke="black" cx="185.291" cy="-18" rx="35.194" ry="18"/>
<text text-anchor="middle" x="185.291" y="-14.3" font-family="Times,serif" font-size="14.00">State 1</text>
</g>
<!-- State 0&#45;&gt;State 1 -->
<g id="edge1" class="edge"><title>State 0&#45;&gt;State 1</title>
<path fill="none" stroke="black" d="M70.468,-18C91.1359,-18 117.658,-18 139.901,-18"/>
<polygon fill="black" stroke="black" points="140.106,-21.5001 150.106,-18 140.106,-14.5001 140.106,-21.5001"/>
<text text-anchor="middle" x="110.194" y="-21.8" font-family="Times,serif" font-size="14.00">action 0</text>
</g>
<!-- State 2 -->
<g id="node3" class="node"><title>State 2</title>
<ellipse fill="none" stroke="black" cx="335.484" cy="-18" rx="35.194" ry="18"/>
<text text-anchor="middle" x="335.484" y="-14.3" font-family="Times,serif" font-size="14.00">State 2</text>
</g>
<!-- State 1&#45;&gt;State 2 -->
<g id="edge2" class="edge"><title>State 1&#45;&gt;State 2</title>
<path fill="none" stroke="black" d="M220.662,-18C241.33,-18 267.852,-18 290.094,-18"/>
<polygon fill="black" stroke="black" points="290.3,-21.5001 300.3,-18 290.3,-14.5001 290.3,-21.5001"/>
<text text-anchor="middle" x="260.388" y="-21.8" font-family="Times,serif" font-size="14.00">action 1</text>
</g>
<!-- State ??? -->
<g id="node4" class="node"><title>State ???</title>
<ellipse fill="none" stroke="black" cx="513.828" cy="-18" rx="42.4939" ry="18"/>
<text text-anchor="middle" x="513.828" y="-14.3" font-family="Times,serif" font-size="14.00">State ???</text>
</g>
<!-- State 2&#45;&gt;State ??? -->
<g id="edge3" class="edge"><title>State 2&#45;&gt;State ???</title>
<path fill="none" stroke="black" d="M370.904,-18C396.524,-18 431.936,-18 460.977,-18"/>
<polygon fill="black" stroke="black" points="461.358,-21.5001 471.358,-18 461.358,-14.5001 461.358,-21.5001"/>
<text text-anchor="middle" x="421.081" y="-21.8" font-family="Times,serif" font-size="14.00">action 2...N</text>
</g>
</g>
</svg>
